<svg width="31" height="31" viewBox="0 0 31 31" fill="none" xmlns="http://www.w3.org/2000/svg">
<path d="M15.5 9.03516C14.2561 9.03516 13.0402 9.404 12.006 10.0951C10.9718 10.7861 10.1657 11.7683 9.68966 12.9175C9.21366 14.0667 9.08912 15.3312 9.33178 16.5512C9.57445 17.7711 10.1734 18.8917 11.053 19.7713C11.9325 20.6508 13.0531 21.2498 14.2731 21.4924C15.493 21.7351 16.7575 21.6106 17.9067 21.1346C19.0559 20.6586 20.0381 19.8525 20.7292 18.8182C21.4202 17.784 21.7891 16.5681 21.7891 15.3242C21.7891 13.6563 21.1265 12.0566 19.947 10.8772C18.7676 9.69775 17.168 9.03516 15.5 9.03516V9.03516ZM15.5 18.332C14.9051 18.332 14.3236 18.1556 13.8289 17.8251C13.3343 17.4946 12.9488 17.0249 12.7211 16.4753C12.4935 15.9257 12.4339 15.3209 12.55 14.7374C12.666 14.154 12.9525 13.618 13.3732 13.1974C13.7938 12.7767 14.3297 12.4903 14.9132 12.3742C15.4967 12.2581 16.1014 12.3177 16.651 12.5454C17.2006 12.773 17.6704 13.1585 18.0009 13.6532C18.3314 14.1478 18.5078 14.7293 18.5078 15.3242C18.5042 16.1208 18.1862 16.8838 17.6229 17.4471C17.0596 18.0104 16.2966 18.3284 15.5 18.332ZM22.0625 0.558594H8.9375C6.7619 0.558594 4.6754 1.42285 3.13701 2.96123C1.59863 4.49962 0.734375 6.58611 0.734375 8.76172V21.8867C0.734375 24.0623 1.59863 26.1488 3.13701 27.6872C4.6754 29.2256 6.7619 30.0898 8.9375 30.0898H22.0625C24.2381 30.0898 26.3246 29.2256 27.863 27.6872C29.4014 26.1488 30.2656 24.0623 30.2656 21.8867V8.76172C30.2656 6.58611 29.4014 4.49962 27.863 2.96123C26.3246 1.42285 24.2381 0.558594 22.0625 0.558594V0.558594ZM26.9844 21.8867C26.9844 23.1921 26.4658 24.444 25.5428 25.367C24.6198 26.29 23.3679 26.8086 22.0625 26.8086H8.9375C7.63214 26.8086 6.38024 26.29 5.45721 25.367C4.53418 24.444 4.01563 23.1921 4.01562 21.8867V8.76172C4.01562 7.45636 4.53418 6.20446 5.45721 5.28143C6.38024 4.3584 7.63214 3.83984 8.9375 3.83984H22.0625C23.3679 3.83984 24.6198 4.3584 25.5428 5.28143C26.4658 6.20446 26.9844 7.45636 26.9844 8.76172V21.8867ZM24.7969 8.21484C24.7969 8.64749 24.6686 9.07042 24.4282 9.43015C24.1878 9.78989 23.8462 10.0703 23.4465 10.2358C23.0468 10.4014 22.6069 10.4447 22.1826 10.3603C21.7583 10.2759 21.3685 10.0676 21.0626 9.76164C20.7567 9.45571 20.5483 9.06594 20.4639 8.6416C20.3795 8.21727 20.4228 7.77744 20.5884 7.37772C20.754 6.97801 21.0343 6.63637 21.3941 6.396C21.7538 6.15564 22.1767 6.02734 22.6094 6.02734C23.1895 6.02734 23.7459 6.25781 24.1562 6.66805C24.5664 7.07828 24.7969 7.63468 24.7969 8.21484Z" fill="#E0E0E0"/>
</svg>
