<svg width="27" height="27" viewBox="0 0 27 27" fill="none" xmlns="http://www.w3.org/2000/svg">
<path d="M23.7083 0.199219C24.4819 0.199219 25.2237 0.506509 25.7707 1.05349C26.3177 1.60047 26.625 2.34234 26.625 3.11589V23.5326C26.625 24.3061 26.3177 25.048 25.7707 25.5949C25.2237 26.1419 24.4819 26.4492 23.7083 26.4492H3.29167C2.51812 26.4492 1.77625 26.1419 1.22927 25.5949C0.682291 25.048 0.375 24.3061 0.375 23.5326V3.11589C0.375 2.34234 0.682291 1.60047 1.22927 1.05349C1.77625 0.506509 2.51812 0.199219 3.29167 0.199219H23.7083ZM22.9792 22.8034V15.0742C22.9792 13.8133 22.4783 12.6041 21.5867 11.7125C20.6951 10.8209 19.4859 10.3201 18.225 10.3201C16.9854 10.3201 15.5417 11.0784 14.8417 12.2159V10.5971H10.7729V22.8034H14.8417V15.6138C14.8417 14.4909 15.7458 13.5721 16.8688 13.5721C17.4102 13.5721 17.9295 13.7872 18.3124 14.1701C18.6953 14.553 18.9104 15.0723 18.9104 15.6138V22.8034H22.9792ZM6.03333 8.30755C6.68311 8.30755 7.30628 8.04943 7.76575 7.58996C8.22521 7.1305 8.48333 6.50733 8.48333 5.85755C8.48333 4.5013 7.38958 3.39297 6.03333 3.39297C5.37969 3.39297 4.75281 3.65263 4.29061 4.11483C3.82841 4.57703 3.56875 5.2039 3.56875 5.85755C3.56875 7.2138 4.67708 8.30755 6.03333 8.30755M8.06042 22.8034V10.5971H4.02083V22.8034H8.06042V22.8034Z" fill="#E0E0E0"/>
</svg>
