<svg width="22" height="22" viewBox="0 0 22 22" fill="none" xmlns="http://www.w3.org/2000/svg">
<path d="M20.345 14.9179C18.91 14.9179 17.5217 14.6846 16.2267 14.2646C16.0238 14.1958 15.8056 14.1856 15.5972 14.2352C15.3888 14.2847 15.1986 14.3919 15.0483 14.5446L13.2167 16.8429C9.915 15.2679 6.82333 12.2929 5.17833 8.87461L7.45333 6.93794C7.76833 6.61128 7.86167 6.15628 7.73333 5.74794C7.30167 4.45294 7.08 3.06461 7.08 1.62961C7.08 0.999609 6.555 0.474609 5.925 0.474609H1.88833C1.25833 0.474609 0.5 0.754609 0.5 1.62961C0.5 12.4679 9.51833 21.4746 20.345 21.4746C21.1733 21.4746 21.5 20.7396 21.5 20.0979V16.0729C21.5 15.4429 20.975 14.9179 20.345 14.9179Z" fill="#FAFAFA"/>
</svg>
