<svg width="34" height="28" viewBox="0 0 34 28" fill="none" xmlns="http://www.w3.org/2000/svg">
<path d="M33.4794 4.0241C32.2617 4.56369 30.9535 4.92827 29.5783 5.09306C30.9973 4.24401 32.0589 2.9077 32.565 1.33348C31.2319 2.12534 29.7728 2.68272 28.2512 2.98139C27.228 1.88891 25.8728 1.16479 24.3959 0.92146C22.919 0.678134 21.4031 0.929215 20.0835 1.63572C18.7639 2.34223 17.7145 3.46463 17.0981 4.82867C16.4818 6.19271 16.3331 7.72207 16.675 9.17931C13.9737 9.04368 11.3311 8.34157 8.91874 7.11855C6.50636 5.89552 4.3781 4.17892 2.67208 2.08014C2.08875 3.08639 1.75333 4.25306 1.75333 5.49556C1.75268 6.6141 2.02813 7.7155 2.55524 8.70205C3.08234 9.68859 3.84482 10.5298 4.775 11.151C3.69623 11.1167 2.64127 10.8252 1.69791 10.3008V10.3883C1.6978 11.9571 2.24046 13.4776 3.23381 14.6918C4.22715 15.906 5.61 16.7392 7.1477 17.0499C6.14697 17.3208 5.09778 17.3607 4.07937 17.1666C4.51322 18.5165 5.35832 19.6968 6.49637 20.5425C7.63441 21.3882 9.00842 21.8569 10.426 21.8829C8.01954 23.772 5.04754 24.7967 1.98812 24.7922C1.44618 24.7924 0.904691 24.7607 0.366455 24.6974C3.47194 26.6941 7.08695 27.7538 10.779 27.7497C23.2769 27.7497 30.1092 17.3985 30.1092 8.42098C30.1092 8.12931 30.1019 7.83473 30.0887 7.54306C31.4177 6.58198 32.5649 5.39187 33.4765 4.02848L33.4794 4.0241V4.0241Z" fill="#E0E0E0"/>
</svg>
